<mxfile host="app.diagrams.net" modified="2024-02-03T15:37:38.366Z" agent="Mozilla/5.0 (Windows NT 10.0; Win64; x64) AppleWebKit/537.36 (KHTML, like Gecko) Chrome/121.0.0.0 Safari/537.36" etag="Ahn1e-TPqZy1IDL0e0sR" version="23.1.1" type="device" pages="4">
  <diagram id="y6k612_flm3ZTvvv4lWE" name="1. testBasicExpression">
    <mxGraphModel dx="1450" dy="941" grid="0" gridSize="10" guides="1" tooltips="1" connect="1" arrows="1" fold="1" page="0" pageScale="1" pageWidth="827" pageHeight="1169" math="0" shadow="0">
      <root>
        <mxCell id="0" />
        <mxCell id="1" parent="0" />
        <mxCell id="vAJBv0fthC_O4Mqx9hH5-1" value="32" style="ellipse;whiteSpace=wrap;html=1;aspect=fixed;fontSize=25;" parent="1" vertex="1">
          <mxGeometry x="-188" y="420" width="80" height="80" as="geometry" />
        </mxCell>
        <mxCell id="vAJBv0fthC_O4Mqx9hH5-2" style="edgeStyle=none;shape=connector;rounded=0;orthogonalLoop=1;jettySize=auto;html=1;entryX=0.5;entryY=0;entryDx=0;entryDy=0;labelBackgroundColor=default;strokeColor=default;align=center;verticalAlign=middle;fontFamily=Helvetica;fontSize=11;fontColor=default;endArrow=classic;" parent="1" source="vAJBv0fthC_O4Mqx9hH5-4" target="vAJBv0fthC_O4Mqx9hH5-5" edge="1">
          <mxGeometry relative="1" as="geometry" />
        </mxCell>
        <mxCell id="vAJBv0fthC_O4Mqx9hH5-3" style="edgeStyle=none;shape=connector;rounded=0;orthogonalLoop=1;jettySize=auto;html=1;entryX=0.5;entryY=0;entryDx=0;entryDy=0;labelBackgroundColor=default;strokeColor=default;align=center;verticalAlign=middle;fontFamily=Helvetica;fontSize=11;fontColor=default;endArrow=classic;" parent="1" source="vAJBv0fthC_O4Mqx9hH5-4" target="vAJBv0fthC_O4Mqx9hH5-1" edge="1">
          <mxGeometry relative="1" as="geometry" />
        </mxCell>
        <mxCell id="vAJBv0fthC_O4Mqx9hH5-4" value="+" style="ellipse;whiteSpace=wrap;html=1;aspect=fixed;fontSize=25;" parent="1" vertex="1">
          <mxGeometry x="-12" y="279" width="80" height="80" as="geometry" />
        </mxCell>
        <mxCell id="vAJBv0fthC_O4Mqx9hH5-5" value="4" style="ellipse;whiteSpace=wrap;html=1;aspect=fixed;fontSize=25;" parent="1" vertex="1">
          <mxGeometry x="167" y="425" width="80" height="80" as="geometry" />
        </mxCell>
        <mxCell id="vAJBv0fthC_O4Mqx9hH5-6" value="32" style="ellipse;whiteSpace=wrap;html=1;aspect=fixed;fontSize=25;" parent="1" vertex="1">
          <mxGeometry x="273" y="-52" width="80" height="80" as="geometry" />
        </mxCell>
        <mxCell id="vAJBv0fthC_O4Mqx9hH5-7" value="+" style="ellipse;whiteSpace=wrap;html=1;aspect=fixed;fontSize=25;" parent="1" vertex="1">
          <mxGeometry x="387" y="-52" width="80" height="80" as="geometry" />
        </mxCell>
        <mxCell id="vAJBv0fthC_O4Mqx9hH5-8" value="4" style="ellipse;whiteSpace=wrap;html=1;aspect=fixed;fontSize=25;" parent="1" vertex="1">
          <mxGeometry x="506" y="-57" width="80" height="80" as="geometry" />
        </mxCell>
      </root>
    </mxGraphModel>
  </diagram>
  <diagram id="afIh8-rs8X3wsv8iz1S9" name="2. testPrecedence">
    <mxGraphModel dx="1450" dy="541" grid="0" gridSize="10" guides="1" tooltips="1" connect="1" arrows="1" fold="1" page="0" pageScale="1" pageWidth="827" pageHeight="1169" math="0" shadow="0">
      <root>
        <mxCell id="0" />
        <mxCell id="1" parent="0" />
        <mxCell id="k1dWWK2XNUwZIuI3W56x-1" value="32" style="ellipse;whiteSpace=wrap;html=1;aspect=fixed;fontSize=25;" parent="1" vertex="1">
          <mxGeometry x="-188" y="420" width="80" height="80" as="geometry" />
        </mxCell>
        <mxCell id="k1dWWK2XNUwZIuI3W56x-2" style="edgeStyle=none;shape=connector;rounded=0;orthogonalLoop=1;jettySize=auto;html=1;entryX=0.5;entryY=0;entryDx=0;entryDy=0;labelBackgroundColor=default;strokeColor=default;align=center;verticalAlign=middle;fontFamily=Helvetica;fontSize=11;fontColor=default;endArrow=classic;" parent="1" source="k1dWWK2XNUwZIuI3W56x-4" target="k1dWWK2XNUwZIuI3W56x-5" edge="1">
          <mxGeometry relative="1" as="geometry" />
        </mxCell>
        <mxCell id="k1dWWK2XNUwZIuI3W56x-3" style="edgeStyle=none;shape=connector;rounded=0;orthogonalLoop=1;jettySize=auto;html=1;entryX=0.5;entryY=0;entryDx=0;entryDy=0;labelBackgroundColor=default;strokeColor=default;align=center;verticalAlign=middle;fontFamily=Helvetica;fontSize=11;fontColor=default;endArrow=classic;" parent="1" source="k1dWWK2XNUwZIuI3W56x-4" target="k1dWWK2XNUwZIuI3W56x-1" edge="1">
          <mxGeometry relative="1" as="geometry" />
        </mxCell>
        <mxCell id="k1dWWK2XNUwZIuI3W56x-4" value="+" style="ellipse;whiteSpace=wrap;html=1;aspect=fixed;fontSize=25;" parent="1" vertex="1">
          <mxGeometry x="-12" y="279" width="80" height="80" as="geometry" />
        </mxCell>
        <mxCell id="k1dWWK2XNUwZIuI3W56x-13" style="edgeStyle=none;shape=connector;rounded=0;orthogonalLoop=1;jettySize=auto;html=1;entryX=0.5;entryY=0;entryDx=0;entryDy=0;labelBackgroundColor=default;strokeColor=default;align=center;verticalAlign=middle;fontFamily=Helvetica;fontSize=11;fontColor=default;endArrow=classic;" parent="1" source="k1dWWK2XNUwZIuI3W56x-5" target="k1dWWK2XNUwZIuI3W56x-11" edge="1">
          <mxGeometry relative="1" as="geometry" />
        </mxCell>
        <mxCell id="k1dWWK2XNUwZIuI3W56x-14" style="edgeStyle=none;shape=connector;rounded=0;orthogonalLoop=1;jettySize=auto;html=1;entryX=0.5;entryY=0;entryDx=0;entryDy=0;labelBackgroundColor=default;strokeColor=default;align=center;verticalAlign=middle;fontFamily=Helvetica;fontSize=11;fontColor=default;endArrow=classic;" parent="1" source="k1dWWK2XNUwZIuI3W56x-5" target="k1dWWK2XNUwZIuI3W56x-12" edge="1">
          <mxGeometry relative="1" as="geometry" />
        </mxCell>
        <mxCell id="k1dWWK2XNUwZIuI3W56x-5" value="*" style="ellipse;whiteSpace=wrap;html=1;aspect=fixed;fontSize=25;" parent="1" vertex="1">
          <mxGeometry x="167" y="425" width="80" height="80" as="geometry" />
        </mxCell>
        <mxCell id="k1dWWK2XNUwZIuI3W56x-6" value="32" style="ellipse;whiteSpace=wrap;html=1;aspect=fixed;fontSize=25;" parent="1" vertex="1">
          <mxGeometry x="385" y="53" width="80" height="80" as="geometry" />
        </mxCell>
        <mxCell id="k1dWWK2XNUwZIuI3W56x-7" value="+" style="ellipse;whiteSpace=wrap;html=1;aspect=fixed;fontSize=25;" parent="1" vertex="1">
          <mxGeometry x="485" y="53" width="80" height="80" as="geometry" />
        </mxCell>
        <mxCell id="k1dWWK2XNUwZIuI3W56x-8" value="4" style="ellipse;whiteSpace=wrap;html=1;aspect=fixed;fontSize=25;" parent="1" vertex="1">
          <mxGeometry x="585" y="53" width="80" height="80" as="geometry" />
        </mxCell>
        <mxCell id="k1dWWK2XNUwZIuI3W56x-9" value="*" style="ellipse;whiteSpace=wrap;html=1;aspect=fixed;fontSize=25;" parent="1" vertex="1">
          <mxGeometry x="687" y="53" width="80" height="80" as="geometry" />
        </mxCell>
        <mxCell id="k1dWWK2XNUwZIuI3W56x-10" value="5" style="ellipse;whiteSpace=wrap;html=1;aspect=fixed;fontSize=25;" parent="1" vertex="1">
          <mxGeometry x="789" y="53" width="80" height="80" as="geometry" />
        </mxCell>
        <mxCell id="k1dWWK2XNUwZIuI3W56x-11" value="4" style="ellipse;whiteSpace=wrap;html=1;aspect=fixed;fontSize=25;" parent="1" vertex="1">
          <mxGeometry x="37" y="553" width="80" height="80" as="geometry" />
        </mxCell>
        <mxCell id="k1dWWK2XNUwZIuI3W56x-12" value="5" style="ellipse;whiteSpace=wrap;html=1;aspect=fixed;fontSize=25;" parent="1" vertex="1">
          <mxGeometry x="300" y="553" width="80" height="80" as="geometry" />
        </mxCell>
      </root>
    </mxGraphModel>
  </diagram>
  <diagram id="_9d5tFc1pjXEHe2AWX0e" name="3. testParenthesisPrecedence">
    <mxGraphModel dx="2250" dy="1341" grid="0" gridSize="10" guides="1" tooltips="1" connect="1" arrows="1" fold="1" page="0" pageScale="1" pageWidth="827" pageHeight="1169" math="0" shadow="0">
      <root>
        <mxCell id="0" />
        <mxCell id="1" parent="0" />
        <mxCell id="RXLKbFz8ohNqWv_n2GXT-1" value="32" style="ellipse;whiteSpace=wrap;html=1;aspect=fixed;fontSize=25;" parent="1" vertex="1">
          <mxGeometry x="-283" y="534" width="80" height="80" as="geometry" />
        </mxCell>
        <mxCell id="RXLKbFz8ohNqWv_n2GXT-3" style="edgeStyle=none;shape=connector;rounded=0;orthogonalLoop=1;jettySize=auto;html=1;entryX=0.5;entryY=0;entryDx=0;entryDy=0;labelBackgroundColor=default;strokeColor=default;align=center;verticalAlign=middle;fontFamily=Helvetica;fontSize=11;fontColor=default;endArrow=classic;" parent="1" source="RXLKbFz8ohNqWv_n2GXT-4" target="RXLKbFz8ohNqWv_n2GXT-1" edge="1">
          <mxGeometry relative="1" as="geometry" />
        </mxCell>
        <mxCell id="RXLKbFz8ohNqWv_n2GXT-17" style="edgeStyle=none;shape=connector;rounded=0;orthogonalLoop=1;jettySize=auto;html=1;entryX=0.5;entryY=0;entryDx=0;entryDy=0;labelBackgroundColor=default;strokeColor=default;align=center;verticalAlign=middle;fontFamily=Helvetica;fontSize=11;fontColor=default;endArrow=classic;" parent="1" source="RXLKbFz8ohNqWv_n2GXT-4" target="RXLKbFz8ohNqWv_n2GXT-13" edge="1">
          <mxGeometry relative="1" as="geometry" />
        </mxCell>
        <mxCell id="RXLKbFz8ohNqWv_n2GXT-4" value="+" style="ellipse;whiteSpace=wrap;html=1;aspect=fixed;fontSize=25;" parent="1" vertex="1">
          <mxGeometry x="-145" y="412" width="80" height="80" as="geometry" />
        </mxCell>
        <mxCell id="RXLKbFz8ohNqWv_n2GXT-6" style="edgeStyle=none;shape=connector;rounded=0;orthogonalLoop=1;jettySize=auto;html=1;entryX=0.5;entryY=0;entryDx=0;entryDy=0;labelBackgroundColor=default;strokeColor=default;align=center;verticalAlign=middle;fontFamily=Helvetica;fontSize=11;fontColor=default;endArrow=classic;" parent="1" source="RXLKbFz8ohNqWv_n2GXT-7" target="RXLKbFz8ohNqWv_n2GXT-14" edge="1">
          <mxGeometry relative="1" as="geometry" />
        </mxCell>
        <mxCell id="RXLKbFz8ohNqWv_n2GXT-18" style="edgeStyle=none;shape=connector;rounded=0;orthogonalLoop=1;jettySize=auto;html=1;entryX=0.5;entryY=0;entryDx=0;entryDy=0;labelBackgroundColor=default;strokeColor=default;align=center;verticalAlign=middle;fontFamily=Helvetica;fontSize=11;fontColor=default;endArrow=classic;" parent="1" source="RXLKbFz8ohNqWv_n2GXT-7" target="RXLKbFz8ohNqWv_n2GXT-4" edge="1">
          <mxGeometry relative="1" as="geometry" />
        </mxCell>
        <mxCell id="RXLKbFz8ohNqWv_n2GXT-7" value="*" style="ellipse;whiteSpace=wrap;html=1;aspect=fixed;fontSize=25;" parent="1" vertex="1">
          <mxGeometry x="62" y="271" width="80" height="80" as="geometry" />
        </mxCell>
        <mxCell id="RXLKbFz8ohNqWv_n2GXT-8" value="32" style="ellipse;whiteSpace=wrap;html=1;aspect=fixed;fontSize=25;" parent="1" vertex="1">
          <mxGeometry x="385" y="53" width="80" height="80" as="geometry" />
        </mxCell>
        <mxCell id="RXLKbFz8ohNqWv_n2GXT-9" value="+" style="ellipse;whiteSpace=wrap;html=1;aspect=fixed;fontSize=25;" parent="1" vertex="1">
          <mxGeometry x="485" y="53" width="80" height="80" as="geometry" />
        </mxCell>
        <mxCell id="RXLKbFz8ohNqWv_n2GXT-10" value="4" style="ellipse;whiteSpace=wrap;html=1;aspect=fixed;fontSize=25;" parent="1" vertex="1">
          <mxGeometry x="585" y="53" width="80" height="80" as="geometry" />
        </mxCell>
        <mxCell id="RXLKbFz8ohNqWv_n2GXT-11" value="*" style="ellipse;whiteSpace=wrap;html=1;aspect=fixed;fontSize=25;" parent="1" vertex="1">
          <mxGeometry x="801" y="49" width="80" height="80" as="geometry" />
        </mxCell>
        <mxCell id="RXLKbFz8ohNqWv_n2GXT-12" value="5" style="ellipse;whiteSpace=wrap;html=1;aspect=fixed;fontSize=25;" parent="1" vertex="1">
          <mxGeometry x="903" y="49" width="80" height="80" as="geometry" />
        </mxCell>
        <mxCell id="RXLKbFz8ohNqWv_n2GXT-13" value="4" style="ellipse;whiteSpace=wrap;html=1;aspect=fixed;fontSize=25;" parent="1" vertex="1">
          <mxGeometry x="-18" y="534" width="80" height="80" as="geometry" />
        </mxCell>
        <mxCell id="RXLKbFz8ohNqWv_n2GXT-14" value="5" style="ellipse;whiteSpace=wrap;html=1;aspect=fixed;fontSize=25;" parent="1" vertex="1">
          <mxGeometry x="215" y="412" width="80" height="80" as="geometry" />
        </mxCell>
        <mxCell id="RXLKbFz8ohNqWv_n2GXT-15" value="(" style="ellipse;whiteSpace=wrap;html=1;aspect=fixed;fontSize=25;" parent="1" vertex="1">
          <mxGeometry x="285" y="53" width="80" height="80" as="geometry" />
        </mxCell>
        <mxCell id="RXLKbFz8ohNqWv_n2GXT-16" value=")" style="ellipse;whiteSpace=wrap;html=1;aspect=fixed;fontSize=25;" parent="1" vertex="1">
          <mxGeometry x="693" y="53" width="80" height="80" as="geometry" />
        </mxCell>
        <mxCell id="BcDS77moZdY14tzyuJZk-1" value="32" style="ellipse;whiteSpace=wrap;html=1;aspect=fixed;fontSize=25;" vertex="1" parent="1">
          <mxGeometry x="-848" y="-226" width="80" height="80" as="geometry" />
        </mxCell>
        <mxCell id="BcDS77moZdY14tzyuJZk-8" style="edgeStyle=none;shape=connector;rounded=0;orthogonalLoop=1;jettySize=auto;html=1;entryX=0.5;entryY=0;entryDx=0;entryDy=0;labelBackgroundColor=default;strokeColor=default;align=center;verticalAlign=middle;fontFamily=Helvetica;fontSize=11;fontColor=default;endArrow=classic;" edge="1" parent="1" source="BcDS77moZdY14tzyuJZk-2" target="BcDS77moZdY14tzyuJZk-3">
          <mxGeometry relative="1" as="geometry" />
        </mxCell>
        <mxCell id="BcDS77moZdY14tzyuJZk-9" style="edgeStyle=none;shape=connector;rounded=0;orthogonalLoop=1;jettySize=auto;html=1;entryX=0.5;entryY=0;entryDx=0;entryDy=0;labelBackgroundColor=default;strokeColor=default;align=center;verticalAlign=middle;fontFamily=Helvetica;fontSize=11;fontColor=default;endArrow=classic;" edge="1" parent="1" source="BcDS77moZdY14tzyuJZk-2" target="BcDS77moZdY14tzyuJZk-1">
          <mxGeometry relative="1" as="geometry" />
        </mxCell>
        <mxCell id="BcDS77moZdY14tzyuJZk-2" value="+" style="ellipse;whiteSpace=wrap;html=1;aspect=fixed;fontSize=25;" vertex="1" parent="1">
          <mxGeometry x="-737" y="-336" width="80" height="80" as="geometry" />
        </mxCell>
        <mxCell id="BcDS77moZdY14tzyuJZk-3" value="4" style="ellipse;whiteSpace=wrap;html=1;aspect=fixed;fontSize=25;" vertex="1" parent="1">
          <mxGeometry x="-605" y="-229" width="80" height="80" as="geometry" />
        </mxCell>
        <mxCell id="BcDS77moZdY14tzyuJZk-10" style="edgeStyle=none;shape=connector;rounded=0;orthogonalLoop=1;jettySize=auto;html=1;entryX=0.5;entryY=0;entryDx=0;entryDy=0;labelBackgroundColor=default;strokeColor=default;align=center;verticalAlign=middle;fontFamily=Helvetica;fontSize=11;fontColor=default;endArrow=classic;" edge="1" parent="1" source="BcDS77moZdY14tzyuJZk-4" target="BcDS77moZdY14tzyuJZk-2">
          <mxGeometry relative="1" as="geometry" />
        </mxCell>
        <mxCell id="BcDS77moZdY14tzyuJZk-11" style="edgeStyle=none;shape=connector;rounded=0;orthogonalLoop=1;jettySize=auto;html=1;entryX=0.5;entryY=0;entryDx=0;entryDy=0;labelBackgroundColor=default;strokeColor=default;align=center;verticalAlign=middle;fontFamily=Helvetica;fontSize=11;fontColor=default;endArrow=classic;" edge="1" parent="1" source="BcDS77moZdY14tzyuJZk-4" target="BcDS77moZdY14tzyuJZk-5">
          <mxGeometry relative="1" as="geometry" />
        </mxCell>
        <mxCell id="BcDS77moZdY14tzyuJZk-4" value="*" style="ellipse;whiteSpace=wrap;html=1;aspect=fixed;fontSize=25;" vertex="1" parent="1">
          <mxGeometry x="-556" y="-469" width="80" height="80" as="geometry" />
        </mxCell>
        <mxCell id="BcDS77moZdY14tzyuJZk-5" value="5" style="ellipse;whiteSpace=wrap;html=1;aspect=fixed;fontSize=25;" vertex="1" parent="1">
          <mxGeometry x="-437" y="-383" width="80" height="80" as="geometry" />
        </mxCell>
      </root>
    </mxGraphModel>
  </diagram>
  <diagram name="4. getExpressionTreeFromString" id="xkzkU3x1HBfMWTXg-dRt">
    <mxGraphModel dx="1834" dy="356" grid="0" gridSize="10" guides="1" tooltips="1" connect="1" arrows="1" fold="1" page="0" pageScale="1" pageWidth="827" pageHeight="1169" math="0" shadow="0">
      <root>
        <mxCell id="0" />
        <mxCell id="1" parent="0" />
        <mxCell id="cRVab_S1p6JP8OZa_FDt-1" value="3" style="ellipse;whiteSpace=wrap;html=1;aspect=fixed;fontSize=25;" vertex="1" parent="1">
          <mxGeometry x="410" y="572" width="80" height="80" as="geometry" />
        </mxCell>
        <mxCell id="cRVab_S1p6JP8OZa_FDt-2" value="+" style="ellipse;whiteSpace=wrap;html=1;aspect=fixed;fontSize=25;" vertex="1" parent="1">
          <mxGeometry x="514" y="572" width="80" height="80" as="geometry" />
        </mxCell>
        <mxCell id="cRVab_S1p6JP8OZa_FDt-3" value="56" style="ellipse;whiteSpace=wrap;html=1;aspect=fixed;fontSize=25;" vertex="1" parent="1">
          <mxGeometry x="618" y="572" width="80" height="80" as="geometry" />
        </mxCell>
        <mxCell id="cRVab_S1p6JP8OZa_FDt-4" value="*" style="ellipse;whiteSpace=wrap;html=1;aspect=fixed;fontSize=25;" vertex="1" parent="1">
          <mxGeometry x="722" y="572" width="80" height="80" as="geometry" />
        </mxCell>
        <mxCell id="cRVab_S1p6JP8OZa_FDt-5" value="(" style="ellipse;whiteSpace=wrap;html=1;aspect=fixed;fontSize=25;" vertex="1" parent="1">
          <mxGeometry x="826" y="572" width="80" height="80" as="geometry" />
        </mxCell>
        <mxCell id="cRVab_S1p6JP8OZa_FDt-6" value="22" style="ellipse;whiteSpace=wrap;html=1;aspect=fixed;fontSize=25;" vertex="1" parent="1">
          <mxGeometry x="930" y="572" width="80" height="80" as="geometry" />
        </mxCell>
        <mxCell id="cRVab_S1p6JP8OZa_FDt-7" value="-" style="ellipse;whiteSpace=wrap;html=1;aspect=fixed;fontSize=25;" vertex="1" parent="1">
          <mxGeometry x="1034" y="572" width="80" height="80" as="geometry" />
        </mxCell>
        <mxCell id="cRVab_S1p6JP8OZa_FDt-8" value="8" style="ellipse;whiteSpace=wrap;html=1;aspect=fixed;fontSize=25;" vertex="1" parent="1">
          <mxGeometry x="1138" y="572" width="80" height="80" as="geometry" />
        </mxCell>
        <mxCell id="cRVab_S1p6JP8OZa_FDt-9" value=")" style="ellipse;whiteSpace=wrap;html=1;aspect=fixed;fontSize=25;" vertex="1" parent="1">
          <mxGeometry x="1242" y="572" width="80" height="80" as="geometry" />
        </mxCell>
        <mxCell id="cRVab_S1p6JP8OZa_FDt-10" value="/" style="ellipse;whiteSpace=wrap;html=1;aspect=fixed;fontSize=25;" vertex="1" parent="1">
          <mxGeometry x="1346" y="572" width="80" height="80" as="geometry" />
        </mxCell>
        <mxCell id="cRVab_S1p6JP8OZa_FDt-11" value="41" style="ellipse;whiteSpace=wrap;html=1;aspect=fixed;fontSize=25;" vertex="1" parent="1">
          <mxGeometry x="1450" y="572" width="80" height="80" as="geometry" />
        </mxCell>
        <mxCell id="cRVab_S1p6JP8OZa_FDt-12" value="3" style="ellipse;whiteSpace=wrap;html=1;aspect=fixed;fontSize=25;" vertex="1" parent="1">
          <mxGeometry x="-103" y="815" width="80" height="80" as="geometry" />
        </mxCell>
        <mxCell id="cRVab_S1p6JP8OZa_FDt-29" style="edgeStyle=none;shape=connector;rounded=0;orthogonalLoop=1;jettySize=auto;html=1;entryX=0.5;entryY=0;entryDx=0;entryDy=0;labelBackgroundColor=default;strokeColor=default;align=center;verticalAlign=middle;fontFamily=Helvetica;fontSize=11;fontColor=default;endArrow=classic;" edge="1" parent="1" source="cRVab_S1p6JP8OZa_FDt-13" target="cRVab_S1p6JP8OZa_FDt-21">
          <mxGeometry relative="1" as="geometry" />
        </mxCell>
        <mxCell id="cRVab_S1p6JP8OZa_FDt-30" style="edgeStyle=none;shape=connector;rounded=0;orthogonalLoop=1;jettySize=auto;html=1;entryX=0.5;entryY=0;entryDx=0;entryDy=0;labelBackgroundColor=default;strokeColor=default;align=center;verticalAlign=middle;fontFamily=Helvetica;fontSize=11;fontColor=default;endArrow=classic;" edge="1" parent="1" source="cRVab_S1p6JP8OZa_FDt-13" target="cRVab_S1p6JP8OZa_FDt-12">
          <mxGeometry relative="1" as="geometry" />
        </mxCell>
        <mxCell id="cRVab_S1p6JP8OZa_FDt-13" value="+" style="ellipse;whiteSpace=wrap;html=1;aspect=fixed;fontSize=25;" vertex="1" parent="1">
          <mxGeometry x="157" y="668" width="80" height="80" as="geometry" />
        </mxCell>
        <mxCell id="cRVab_S1p6JP8OZa_FDt-14" value="56" style="ellipse;whiteSpace=wrap;html=1;aspect=fixed;fontSize=25;" vertex="1" parent="1">
          <mxGeometry x="-61" y="1072" width="80" height="80" as="geometry" />
        </mxCell>
        <mxCell id="cRVab_S1p6JP8OZa_FDt-25" style="edgeStyle=none;shape=connector;rounded=0;orthogonalLoop=1;jettySize=auto;html=1;entryX=0.5;entryY=0;entryDx=0;entryDy=0;labelBackgroundColor=default;strokeColor=default;align=center;verticalAlign=middle;fontFamily=Helvetica;fontSize=11;fontColor=default;endArrow=classic;" edge="1" parent="1" source="cRVab_S1p6JP8OZa_FDt-15" target="cRVab_S1p6JP8OZa_FDt-18">
          <mxGeometry relative="1" as="geometry" />
        </mxCell>
        <mxCell id="cRVab_S1p6JP8OZa_FDt-26" style="edgeStyle=none;shape=connector;rounded=0;orthogonalLoop=1;jettySize=auto;html=1;entryX=0.5;entryY=0;entryDx=0;entryDy=0;labelBackgroundColor=default;strokeColor=default;align=center;verticalAlign=middle;fontFamily=Helvetica;fontSize=11;fontColor=default;endArrow=classic;" edge="1" parent="1" source="cRVab_S1p6JP8OZa_FDt-15" target="cRVab_S1p6JP8OZa_FDt-14">
          <mxGeometry relative="1" as="geometry" />
        </mxCell>
        <mxCell id="cRVab_S1p6JP8OZa_FDt-15" value="*" style="ellipse;whiteSpace=wrap;html=1;aspect=fixed;fontSize=25;" vertex="1" parent="1">
          <mxGeometry x="106" y="937" width="80" height="80" as="geometry" />
        </mxCell>
        <mxCell id="cRVab_S1p6JP8OZa_FDt-17" value="22" style="ellipse;whiteSpace=wrap;html=1;aspect=fixed;fontSize=25;" vertex="1" parent="1">
          <mxGeometry x="179.5" y="1181" width="80" height="80" as="geometry" />
        </mxCell>
        <mxCell id="cRVab_S1p6JP8OZa_FDt-23" style="rounded=0;orthogonalLoop=1;jettySize=auto;html=1;entryX=0.5;entryY=0;entryDx=0;entryDy=0;" edge="1" parent="1" source="cRVab_S1p6JP8OZa_FDt-18" target="cRVab_S1p6JP8OZa_FDt-19">
          <mxGeometry relative="1" as="geometry" />
        </mxCell>
        <mxCell id="cRVab_S1p6JP8OZa_FDt-24" style="rounded=0;orthogonalLoop=1;jettySize=auto;html=1;entryX=0.5;entryY=0;entryDx=0;entryDy=0;" edge="1" parent="1" source="cRVab_S1p6JP8OZa_FDt-18" target="cRVab_S1p6JP8OZa_FDt-17">
          <mxGeometry relative="1" as="geometry" />
        </mxCell>
        <mxCell id="cRVab_S1p6JP8OZa_FDt-18" value="-" style="ellipse;whiteSpace=wrap;html=1;aspect=fixed;fontSize=25;" vertex="1" parent="1">
          <mxGeometry x="269.5" y="1056" width="80" height="80" as="geometry" />
        </mxCell>
        <mxCell id="cRVab_S1p6JP8OZa_FDt-19" value="8" style="ellipse;whiteSpace=wrap;html=1;aspect=fixed;fontSize=25;" vertex="1" parent="1">
          <mxGeometry x="380.5" y="1176" width="80" height="80" as="geometry" />
        </mxCell>
        <mxCell id="cRVab_S1p6JP8OZa_FDt-27" style="edgeStyle=none;shape=connector;rounded=0;orthogonalLoop=1;jettySize=auto;html=1;entryX=0.5;entryY=0;entryDx=0;entryDy=0;labelBackgroundColor=default;strokeColor=default;align=center;verticalAlign=middle;fontFamily=Helvetica;fontSize=11;fontColor=default;endArrow=classic;" edge="1" parent="1" source="cRVab_S1p6JP8OZa_FDt-21" target="cRVab_S1p6JP8OZa_FDt-15">
          <mxGeometry relative="1" as="geometry" />
        </mxCell>
        <mxCell id="cRVab_S1p6JP8OZa_FDt-28" style="edgeStyle=none;shape=connector;rounded=0;orthogonalLoop=1;jettySize=auto;html=1;entryX=0.5;entryY=0;entryDx=0;entryDy=0;labelBackgroundColor=default;strokeColor=default;align=center;verticalAlign=middle;fontFamily=Helvetica;fontSize=11;fontColor=default;endArrow=classic;" edge="1" parent="1" source="cRVab_S1p6JP8OZa_FDt-21" target="cRVab_S1p6JP8OZa_FDt-22">
          <mxGeometry relative="1" as="geometry" />
        </mxCell>
        <mxCell id="cRVab_S1p6JP8OZa_FDt-21" value="/" style="ellipse;whiteSpace=wrap;html=1;aspect=fixed;fontSize=25;" vertex="1" parent="1">
          <mxGeometry x="404" y="764" width="80" height="80" as="geometry" />
        </mxCell>
        <mxCell id="cRVab_S1p6JP8OZa_FDt-22" value="41" style="ellipse;whiteSpace=wrap;html=1;aspect=fixed;fontSize=25;" vertex="1" parent="1">
          <mxGeometry x="678" y="930" width="80" height="80" as="geometry" />
        </mxCell>
      </root>
    </mxGraphModel>
  </diagram>
</mxfile>
